# xmcd
#
# Track frame offsets:
#	150
#	11797
#	25714
#	44562
#	61190
#	72987
#	89847
#	103068
#	118204
#	135965
#	149424
#	166975
#	182417
#	193188
#	205134
#	220317
#	234111
#	249350
#	260205
#	273740
#
# Disc length: 3907 seconds
#
# Revision: 0
# Processed by: cddbd v1.4PL0 Copyright (c) Steve Scherf et al.
# Submitted via: MusicWizard 6.0.0
#
DISCID=300f4114
DTITLE=Don Williams - Cafe Carolina - Portrait
DYEAR=1900
DGENRE=Country
TTITLE0=The Only Game In Town  (Café Carolina)
TTITLE1=Walkin' A Broken Heart  (Café Carolina)
TTITLE2=Maggie's Dream  (Café Carolina)
TTITLE3=That's The Thing About Love  (Café Carolina)
TTITLE4=Leavin'  (Café Carolina)
TTITLE5=Beautiful Woman  (Café Carolina)
TTITLE6=True Blue Hearts  (Café Carolina)
TTITLE7=I'll Never Need Another You  (Café Carolina)
TTITLE8=It's Time For Love  (Café Carolina)
TTITLE9=I'll Be Faithful To You  (Café Carolina)
TTITLE10=It Only Rains On Me  (Portrait)
TTITLE11=We've Never Tried It With Each Other  (Portrait)
TTITLE12=We're All The Way  (Portrait)
TTITLE13=Circle Driveway  (Portrait)
TTITLE14=You Get To Me  (Portrait)
TTITLE15=Steal My Heart Away  (Portrait)
TTITLE16=Love's Endless War  (Portrait)
TTITLE17=Woman, You Should Be In Movies  (Portrait)
TTITLE18=Love Me Over Again  (Portrait)
TTITLE19=Good Ole Boys Like Me  (Portrait)
EXTD=
EXTT0=
EXTT1=
EXTT2=
EXTT3=
EXTT4=
EXTT5=
EXTT6=
EXTT7=
EXTT8=
EXTT9=
EXTT10=
EXTT11=
EXTT12=
EXTT13=
EXTT14=
EXTT15=
EXTT16=
EXTT17=
EXTT18=
EXTT19=
PLAYORDER=
